<?xml version="1.0" standalone="no"?>
<!DOCTYPE svg PUBLIC "-//W3C//DTD SVG 1.1//EN" "http://www.w3.org/Graphics/SVG/1.1/DTD/svg11.dtd">
<svg width="144mm" height="192mm" viewBox="3 -196 144 192" xmlns="http://www.w3.org/2000/svg" version="1.1">
<title>OpenSCAD Model</title>
<path d="
M 6.24698,-192.436 L 7,-194 L 6.24698,-195.564 L 4.55495,-195.95 L 3.19806,-194.868 L 3.19806,-193.132
 L 4.55495,-192.05 z
M 30.247,-192.436 L 31,-194 L 30.247,-195.564 L 28.5549,-195.95 L 27.1981,-194.868 L 27.1981,-193.132
 L 28.5549,-192.05 z
M 122.247,-192.436 L 123,-194 L 122.247,-195.564 L 120.555,-195.95 L 119.198,-194.868 L 119.198,-193.132
 L 120.555,-192.05 z
M 146.247,-192.436 L 147,-194 L 146.247,-195.564 L 144.555,-195.95 L 143.198,-194.868 L 143.198,-193.132
 L 144.555,-192.05 z
M 146.247,-174.436 L 147,-176 L 146.247,-177.564 L 144.555,-177.95 L 143.198,-176.868 L 143.198,-175.132
 L 144.555,-174.05 z
M 122.247,-174.436 L 123,-176 L 122.247,-177.564 L 120.555,-177.95 L 119.198,-176.868 L 119.198,-175.132
 L 120.555,-174.05 z
M 6.24698,-174.436 L 7,-176 L 6.24698,-177.564 L 4.55495,-177.95 L 3.19806,-176.868 L 3.19806,-175.132
 L 4.55495,-174.05 z
M 30.247,-174.436 L 31,-176 L 30.247,-177.564 L 28.5549,-177.95 L 27.1981,-176.868 L 27.1981,-175.132
 L 28.5549,-174.05 z
M 88.247,-107.436 L 89,-109 L 88.247,-110.564 L 86.5549,-110.95 L 85.1981,-109.868 L 85.1981,-108.132
 L 86.5549,-107.05 z
M 64.247,-107.436 L 65,-109 L 64.247,-110.564 L 62.5549,-110.95 L 61.1981,-109.868 L 61.1981,-108.132
 L 62.5549,-107.05 z
M 64.247,-89.4363 L 65,-91 L 64.247,-92.5637 L 62.5549,-92.9499 L 61.1981,-91.8678 L 61.1981,-90.1322
 L 62.5549,-89.0501 z
M 88.247,-89.4363 L 89,-91 L 88.247,-92.5637 L 86.5549,-92.9499 L 85.1981,-91.8678 L 85.1981,-90.1322
 L 86.5549,-89.0501 z
M 38.927,-61.2366 L 39.5,-63 L 38.927,-64.7634 L 37.427,-65.8532 L 35.5729,-65.8532 L 34.0729,-64.7634
 L 33.5,-63 L 34.0729,-61.2366 L 35.5729,-60.1468 L 37.427,-60.1468 z
M 115.927,-61.2366 L 116.5,-63 L 115.927,-64.7634 L 114.427,-65.8532 L 112.573,-65.8532 L 111.073,-64.7634
 L 110.5,-63 L 111.073,-61.2366 L 112.573,-60.1468 L 114.427,-60.1468 z
M 115.927,-35.2366 L 116.5,-37 L 115.927,-38.7634 L 114.427,-39.8532 L 112.573,-39.8532 L 111.073,-38.7634
 L 110.5,-37 L 111.073,-35.2366 L 112.573,-34.1468 L 114.427,-34.1468 z
M 38.927,-35.2366 L 39.5,-37 L 38.927,-38.7634 L 37.427,-39.8532 L 35.5729,-39.8532 L 34.0729,-38.7634
 L 33.5,-37 L 34.0729,-35.2366 L 35.5729,-34.1468 L 37.427,-34.1468 z
M 30.247,-22.4363 L 31,-24 L 30.247,-25.5637 L 28.5549,-25.9498 L 27.1981,-24.8678 L 27.1981,-23.1322
 L 28.5549,-22.0501 z
M 6.24698,-22.4363 L 7,-24 L 6.24698,-25.5637 L 4.55495,-25.9498 L 3.19806,-24.8678 L 3.19806,-23.1322
 L 4.55495,-22.0501 z
M 146.247,-22.4363 L 147,-24 L 146.247,-25.5637 L 144.555,-25.9498 L 143.198,-24.8678 L 143.198,-23.1322
 L 144.555,-22.0501 z
M 122.247,-22.4363 L 123,-24 L 122.247,-25.5637 L 120.555,-25.9498 L 119.198,-24.8678 L 119.198,-23.1322
 L 120.555,-22.0501 z
M 122.247,-4.43633 L 123,-6 L 122.247,-7.56366 L 120.555,-7.94984 L 119.198,-6.86777 L 119.198,-5.13223
 L 120.555,-4.05014 z
M 6.24698,-4.43633 L 7,-6 L 6.24698,-7.56366 L 4.55495,-7.94984 L 3.19806,-6.86777 L 3.19806,-5.13223
 L 4.55495,-4.05014 z
M 146.247,-4.43633 L 147,-6 L 146.247,-7.56366 L 144.555,-7.94984 L 143.198,-6.86777 L 143.198,-5.13223
 L 144.555,-4.05014 z
M 30.247,-4.43633 L 31,-6 L 30.247,-7.56366 L 28.5549,-7.94984 L 27.1981,-6.86777 L 27.1981,-5.13223
 L 28.5549,-4.05014 z
" stroke="black" fill="lightgray" stroke-width="0.5"/>
</svg>
