<?xml version="1.0" standalone="no"?>
<!DOCTYPE svg PUBLIC "-//W3C//DTD SVG 1.1//EN" "http://www.w3.org/Graphics/SVG/1.1/DTD/svg11.dtd">
<svg width="294mm" height="196mm" viewBox="3 -198 294 196" xmlns="http://www.w3.org/2000/svg" version="1.1">
<title>OpenSCAD Model</title>
<path d="
M 8.26765,-39.1066 L 6.5,-39.75 L 4.73233,-39.1066 L 3.79178,-37.4775 L 4.11842,-35.625 L 5.55943,-34.4158
 L 7.44055,-34.4158 L 8.88156,-35.625 L 9.20821,-37.4775 z
M 8.26765,-165.107 L 6.5,-165.75 L 4.73233,-165.107 L 3.79178,-163.478 L 4.11842,-161.625 L 5.55943,-160.416
 L 7.44055,-160.416 L 8.88156,-161.625 L 9.20821,-163.478 z
M 8.26765,-7.10661 L 6.5,-7.75 L 4.73233,-7.10661 L 3.79178,-5.47752 L 4.11842,-3.625 L 5.55943,-2.41583
 L 7.44055,-2.41583 L 8.88156,-3.625 L 9.20821,-5.47752 z
M 8.26765,-197.107 L 6.5,-197.75 L 4.73233,-197.107 L 3.79178,-195.478 L 4.11842,-193.625 L 5.55943,-192.416
 L 7.44055,-192.416 L 8.88156,-193.625 L 9.20821,-195.478 z
M 8.26776,-80.7678 L 6.5,-81.5 L 4.73222,-80.7678 L 4,-79 L 4.73222,-77.2322 L 6.5,-76.5
 L 8.26776,-77.2322 L 9,-79 z
M 8.26776,-122.768 L 6.5,-123.5 L 4.73222,-122.768 L 4,-121 L 4.73222,-119.232 L 6.5,-118.5
 L 8.26776,-119.232 L 9,-121 z
M 295.268,-39.1066 L 293.5,-39.75 L 291.732,-39.1066 L 290.792,-37.4775 L 291.118,-35.625 L 292.559,-34.4158
 L 294.441,-34.4158 L 295.882,-35.625 L 296.208,-37.4775 z
M 295.268,-7.10661 L 293.5,-7.75 L 291.732,-7.10661 L 290.792,-5.47752 L 291.118,-3.625 L 292.559,-2.41583
 L 294.441,-2.41583 L 295.882,-3.625 L 296.208,-5.47752 z
M 295.268,-165.107 L 293.5,-165.75 L 291.732,-165.107 L 290.792,-163.478 L 291.118,-161.625 L 292.559,-160.416
 L 294.441,-160.416 L 295.882,-161.625 L 296.208,-163.478 z
M 295.268,-197.107 L 293.5,-197.75 L 291.732,-197.107 L 290.792,-195.478 L 291.118,-193.625 L 292.559,-192.416
 L 294.441,-192.416 L 295.882,-193.625 L 296.208,-195.478 z
M 295.268,-80.7678 L 293.5,-81.5 L 291.732,-80.7678 L 291,-79 L 291.732,-77.2322 L 293.5,-76.5
 L 295.268,-77.2322 L 296,-79 z
M 295.268,-122.768 L 293.5,-123.5 L 291.732,-122.768 L 291,-121 L 291.732,-119.232 L 293.5,-118.5
 L 295.268,-119.232 L 296,-121 z
" stroke="black" fill="lightgray" stroke-width="0.5"/>
</svg>
